# Tiled2Unity generated file. Do not modify by hand.
# Wavefront file for 'TestRoom_mesh_0002.obj'

# Vertices (Count = 24)
v -576 -448 0
v -608 -448 0
v -608 -416 0
v -576 -416 0
v -960 -448 0
v -992 -448 0
v -992 -416 0
v -960 -416 0
v -1024 -448 0
v -1056 -448 0
v -1056 -416 0
v -1024 -416 0
v -1088 -480 0
v -1120 -480 0
v -1120 -448 0
v -1088 -448 0
v -1088 -544 0
v -1120 -544 0
v -1120 -512 0
v -1088 -512 0
v -736 -608 0
v -768 -608 0
v -768 -576 0
v -736 -576 0

# Texture cooridinates (Count = 4)
vt 0 0
vt 1 0
vt 1 1
vt 0 1

# Normal
vn 0 0 -1

# Mesh description
g TestRoom_mesh_0002

# Faces
f 1/1/1 2/2/1 3/3/1 4/4/1
f 5/1/1 6/2/1 7/3/1 8/4/1
f 9/1/1 10/2/1 11/3/1 12/4/1
f 13/1/1 14/2/1 15/3/1 16/4/1
f 17/1/1 18/2/1 19/3/1 20/4/1
f 21/1/1 22/2/1 23/3/1 24/4/1

